<svg width="66" height="66" viewBox="0 0 66 66" fill="none" xmlns="http://www.w3.org/2000/svg">
<path d="M32.9998 64.6801C39.2655 64.6801 45.3905 62.8221 50.6003 59.341C55.81 55.86 59.8705 50.9123 62.2683 45.1235C64.6661 39.3347 65.2935 32.9649 64.0711 26.8196C62.8487 20.6743 59.8315 15.0295 55.401 10.5989C50.9704 6.16841 45.3256 3.15118 39.1803 1.9288C33.035 0.706425 26.6652 1.33379 20.8764 3.73158C15.0877 6.12936 10.1399 10.1899 6.65887 15.3996C3.17782 20.6094 1.31982 26.7344 1.31982 33.0001C1.32856 41.3995 4.66907 49.4523 10.6083 55.3916C16.5476 61.3308 24.6004 64.6713 32.9998 64.6801ZM32.9998 6.60008C38.2213 6.60008 43.3254 8.14842 47.6669 11.0493C52.0083 13.9502 55.3921 18.0733 57.3902 22.8972C59.3884 27.7212 59.9112 33.0294 58.8926 38.1505C57.8739 43.2716 55.3596 47.9756 51.6674 51.6677C47.9753 55.3598 43.2713 57.8742 38.1502 58.8928C33.0291 59.9115 27.721 59.3887 22.897 57.3905C18.073 55.3924 13.9499 52.0086 11.049 47.6671C8.14816 43.3257 6.59982 38.2215 6.59982 33.0001C6.59982 25.9984 9.38124 19.2834 14.3322 14.3325C19.2832 9.3815 25.9981 6.60008 32.9998 6.60008Z" fill="#14BE72"/>
<path d="M28.492 42.7879C28.7374 43.033 29.0286 43.2273 29.3491 43.3598C29.6696 43.4923 30.013 43.5604 30.3598 43.5601H30.4786C30.8451 43.5429 31.2041 43.4495 31.5325 43.2859C31.8609 43.1223 32.1516 42.892 32.386 42.6097L45.586 26.7697C46.0042 26.2291 46.1964 25.5475 46.1223 24.8681C46.0481 24.1887 45.7134 23.5645 45.1886 23.1268C44.6637 22.6892 43.9895 22.4721 43.3079 22.5213C42.6263 22.5704 41.9902 22.882 41.5336 23.3905L30.1816 37.0063L24.3076 31.1323C23.8122 30.6369 23.1404 30.3586 22.4398 30.3586C21.7392 30.3586 21.0674 30.6369 20.572 31.1323C20.0766 31.6277 19.7983 32.2995 19.7983 33.0001C19.7983 33.7006 20.0766 34.3725 20.572 34.8679L28.492 42.7879Z" fill="#14BE72"/>
</svg>
