<svg width="44" height="44" viewBox="0 0 44 44" fill="none" xmlns="http://www.w3.org/2000/svg">
<rect x="2" y="2" width="40" height="40" rx="20" fill="#EFEBFF"/>
<rect x="2" y="2" width="40" height="40" rx="20" stroke="#F7F5FF" stroke-width="4"/>
<g clip-path="url(#clip0_72_38880)">
<path d="M25.3335 25.3334L22.0002 22M22.0002 22L18.6669 25.3334M22.0002 22V29.5M28.9919 27.325C29.8047 26.8819 30.4467 26.1808 30.8168 25.3322C31.1868 24.4837 31.2637 23.5361 31.0354 22.6389C30.807 21.7418 30.2865 20.9463 29.5558 20.3779C28.8251 19.8095 27.9259 19.5006 27.0002 19.5H25.9502C25.698 18.5244 25.2278 17.6186 24.5752 16.8509C23.9225 16.0831 23.1042 15.4732 22.182 15.0672C21.2597 14.6612 20.2573 14.4695 19.2503 14.5066C18.2433 14.5437 17.2578 14.8086 16.3679 15.2814C15.4779 15.7542 14.7068 16.4226 14.1124 17.2363C13.518 18.0501 13.1158 18.988 12.936 19.9795C12.7563 20.9711 12.8036 21.9905 13.0746 22.9611C13.3455 23.9317 13.8329 24.8282 14.5002 25.5834" stroke="#4820E3" stroke-width="1.66667" stroke-linecap="round" stroke-linejoin="round"/>
</g>
<defs>
<clipPath id="clip0_72_38880">
<rect width="20" height="20" fill="white" transform="translate(12 12)"/>
</clipPath>
</defs>
</svg>
