<svg width="52" height="52" viewBox="0 0 52 52" fill="none" xmlns="http://www.w3.org/2000/svg">
<rect x="2" y="2" width="48" height="48" rx="24" fill="#EFEBFF"/>
<g clip-path="url(#clip0_72_39331)">
<mask id="mask0_72_39331" style="mask-type:alpha" maskUnits="userSpaceOnUse" x="14" y="14" width="24" height="24">
<rect x="14" y="14" width="24" height="24" fill="#D9D9D9"/>
</mask>
<g mask="url(#mask0_72_39331)">
<path d="M26 30L21 25L22.4 23.55L25 26.15V18H27V26.15L29.6 23.55L31 25L26 30ZM20 34C19.45 34 18.9792 33.8042 18.5875 33.4125C18.1958 33.0208 18 32.55 18 32V29H20V32H32V29H34V32C34 32.55 33.8042 33.0208 33.4125 33.4125C33.0208 33.8042 32.55 34 32 34H20Z" fill="#4820E3"/>
</g>
</g>
<rect x="2" y="2" width="48" height="48" rx="24" stroke="#F7F5FF" stroke-width="4"/>
<defs>
<clipPath id="clip0_72_39331">
<rect width="24" height="24" fill="white" transform="translate(14 14)"/>
</clipPath>
</defs>
</svg>
