<svg width="32" height="32" viewBox="0 0 32 32" fill="none" xmlns="http://www.w3.org/2000/svg">
<circle cx="16" cy="16" r="16" fill="#E6E1F7"/>
<path d="M6.77729 21.7771C6.91523 21.4485 7.23831 21.2552 7.59426 21.2379C7.96076 21.2099 8.32725 21.1351 8.68459 21.0416C9.39009 20.8453 10.0498 20.5087 10.627 20.0507C10.7919 19.9198 10.9569 19.7796 11.1126 19.63C11.4425 19.2934 11.7265 18.9102 11.9556 18.4988C12.1571 18.1342 12.3037 17.7416 12.4137 17.3396C12.4283 17.2949 12.3837 17.2461 12.3366 17.2461H12.0747C11.7173 17.2461 11.3509 17.2461 10.9935 17.2461C10.6912 17.2461 10.398 17.2088 10.1048 17.1433C10.0813 17.1353 10.0579 17.1274 10.0344 17.1252C10.0265 17.1245 10.0163 17.1217 10.0096 17.1173C9.99236 17.1059 9.99114 17.0842 9.99943 17.0652C10.0763 16.8897 10.1455 16.7215 10.2147 16.545L10.7736 15.2269C10.7769 15.2153 10.7804 15.204 10.7842 15.193C10.8192 15.0917 10.8956 14.9932 11.0027 14.9932C11.4516 14.9838 11.8914 14.9932 12.3404 14.9932C12.401 14.9932 12.4479 14.9359 12.4389 14.8759C12.435 14.8498 12.4305 14.8242 12.4229 14.7969C12.2579 14.1612 11.9739 13.5722 11.5799 13.0581C11.3875 12.8057 11.1768 12.572 10.9477 12.3476C10.6637 12.0765 10.3521 11.8428 10.004 11.6465C9.64664 11.4408 9.27098 11.2725 8.88616 11.1417C8.56548 11.0388 8.23563 10.964 7.89662 10.9173C7.63091 10.8893 7.37436 10.8799 7.10865 10.8612C7.07149 10.8612 7.03433 10.8581 6.99718 10.8536C6.94321 10.8471 6.87815 10.8381 6.86127 10.7864C6.76964 10.5714 6.67802 10.3658 6.58639 10.1507C6.47645 9.89833 6.37566 9.64593 6.26571 9.40287C6.20579 9.25342 6.14103 9.10891 6.07495 8.95857C6.03465 8.8669 6.08459 8.76122 6.18073 8.73319C6.18851 8.73093 6.19644 8.72922 6.20446 8.72812C6.60377 8.67333 7.01197 8.65519 7.42017 8.6737C8.07071 8.6924 8.72124 8.79523 9.36261 8.9635C9.76575 9.07568 10.1689 9.2159 10.5537 9.38417C11.0943 9.61788 11.6074 9.90768 12.0838 10.2536C12.2946 10.4125 12.5053 10.5808 12.7069 10.749C12.7985 10.8238 12.8901 10.908 12.9818 10.9921C13.4399 11.4408 13.843 11.955 14.182 12.5065C14.521 13.0581 14.7684 13.6564 14.9334 14.2827C14.9883 14.4884 15.025 14.7034 15.0708 14.9091C15.08 14.9371 15.1074 14.9651 15.1441 14.9651C15.6075 14.9651 16.0761 14.9651 16.546 14.9651C16.8149 14.9651 17.0471 14.7809 17.0957 14.5164C17.2056 14.0771 17.3522 13.6564 17.5355 13.2544C17.6821 12.9179 17.8653 12.5907 18.0761 12.2915C18.2685 12.0204 18.47 11.7493 18.6899 11.4969C18.8549 11.3006 19.029 11.1136 19.2122 10.9454C19.597 10.5901 20.0093 10.2723 20.4583 9.99182C20.9164 9.70202 21.3929 9.46831 21.8968 9.28134C22.245 9.15981 22.5931 9.04763 22.9413 8.95415C23.207 8.88871 23.4636 8.84197 23.7384 8.80458C23.9583 8.76718 24.1874 8.74849 24.4165 8.72979C24.5631 8.72044 24.7005 8.71109 24.8471 8.71109C25.067 8.71109 25.2777 8.70174 25.4885 8.71109C25.6976 8.72037 25.9068 8.7665 26.116 8.80375C26.1191 8.8043 26.1205 8.80407 26.1236 8.80496C26.1442 8.81109 26.1428 8.84553 26.1345 8.86541L25.9924 9.20655C25.8275 9.59919 25.6625 9.99182 25.4885 10.3938C25.4243 10.534 25.3602 10.6742 25.3052 10.8238C25.2686 10.9173 25.1769 10.8799 25.1128 10.8986C25.0101 10.9161 24.9046 10.8988 24.8005 10.903C24.2771 10.9238 23.762 11.0065 23.262 11.151C22.9138 11.2538 22.5748 11.3847 22.2541 11.5436C21.8601 11.74 21.4936 11.983 21.1546 12.2728C21.0172 12.3943 20.8614 12.5159 20.7332 12.6561C20.4033 12.9926 20.1193 13.3759 19.8902 13.7966C19.707 14.1425 19.5604 14.5071 19.4504 14.8904C19.4358 14.9351 19.4804 14.9838 19.5275 14.9838H19.5329C20.0093 14.9838 20.4949 14.9745 20.9714 14.9838C21.2526 14.9838 21.5337 15.0296 21.806 15.1213C21.8115 15.1231 21.8166 15.1268 21.8215 15.1298C21.8342 15.1377 21.838 15.1517 21.8321 15.1654L21.5761 15.7598C21.3929 16.1991 21.2004 16.6385 21.0172 17.0872C20.9622 17.2181 20.9256 17.2461 20.779 17.2461H19.8106C19.6251 17.2461 19.4845 17.4251 19.542 17.6014C19.6703 17.994 19.8536 18.3679 20.0826 18.7138C20.2201 18.9195 20.3667 19.1065 20.5224 19.2934C20.6141 19.4056 20.7148 19.5178 20.8156 19.6113C21.1546 19.9478 21.5395 20.2376 21.9518 20.4713C22.2999 20.677 22.6756 20.8453 23.0604 20.9761C23.4269 21.107 23.8117 21.1912 24.2057 21.2285C24.4439 21.2472 24.6913 21.2659 24.9295 21.2846C25.0012 21.2919 25.0728 21.2935 25.1444 21.2984C25.1841 21.301 25.2327 21.305 25.2502 21.3407C25.406 21.7147 25.5618 22.0886 25.7267 22.4625C25.8069 22.6496 25.8871 22.8366 25.9695 23.0282C26.0477 23.2099 25.9423 23.4297 25.745 23.4441C25.4335 23.4628 25.1128 23.4815 24.8013 23.4815C24.5172 23.4815 24.2332 23.4535 23.9583 23.4161C23.5827 23.36 23.1979 23.2945 22.8222 23.2104C22.3732 23.0982 21.9334 22.9486 21.5028 22.7617C20.9897 22.5373 20.5133 22.2662 20.0551 21.939C19.8169 21.7614 19.5879 21.5744 19.3588 21.3875C19.2122 21.2659 19.0656 21.1257 18.9373 20.9855C18.6441 20.677 18.3693 20.3498 18.131 19.9946C17.902 19.658 17.7004 19.3028 17.5263 18.9289C17.3258 18.5018 17.1833 18.0493 17.0831 17.5876C17.073 17.5408 17.0583 17.4943 17.0476 17.4477C17.0354 17.3943 17.045 17.3326 17.0114 17.2894C16.9905 17.2625 16.9537 17.2555 16.9033 17.2555C16.3169 17.2555 15.7396 17.2555 15.1533 17.2555C15.0949 17.2555 15.045 17.2973 15.0338 17.3545C14.9414 17.8251 14.801 18.287 14.6127 18.7325C14.4477 19.1345 14.2462 19.5178 13.9988 19.873C13.8064 20.1441 13.6048 20.4152 13.3849 20.6676C13.2291 20.864 13.0551 21.0416 12.8718 21.2099C12.5878 21.4623 12.2854 21.696 11.9831 21.9297C11.6166 22.1914 11.2317 22.4251 10.8286 22.6121C10.343 22.8458 9.83905 23.0328 9.32596 23.1637C9.03276 23.2384 8.73956 23.2945 8.44636 23.3413C8.16233 23.388 7.8783 23.4161 7.59426 23.4441C7.42934 23.4535 7.26441 23.4535 7.10865 23.4441C6.87043 23.4441 6.63221 23.4348 6.40315 23.4254C6.32068 23.4161 6.23822 23.4067 6.15576 23.388C6.10995 23.3787 6.09162 23.36 6.11911 23.3039C6.30236 22.8739 6.49477 22.4438 6.67802 22.0138C6.7117 21.9336 6.74453 21.8552 6.77729 21.7771Z" fill="#4820E3"/>
</svg>
