<svg width="66" height="66" viewBox="0 0 66 66" fill="none" xmlns="http://www.w3.org/2000/svg">
<path d="M32.7717 63.2115C49.4642 63.2115 63.0437 49.632 63.0437 32.9395C63.0437 16.247 49.4642 2.66479 32.7717 2.66479C16.0792 2.66479 2.49695 16.2443 2.49695 32.9395C2.4997 49.632 16.0792 63.2115 32.7717 63.2115ZM32.7717 8.6818C46.1504 8.6818 57.0267 19.5635 57.0267 32.9395C57.0267 46.3128 46.1504 57.1945 32.7717 57.1945C19.3957 57.1945 8.51395 46.3128 8.51395 32.9395C8.5167 19.5635 19.3984 8.6818 32.7717 8.6818Z" fill="#D9001A"/>
<path d="M32.7717 39.3965C34.4327 39.3965 35.7802 38.0518 35.7802 36.3853V20.3418C35.7802 18.6808 34.4299 17.3333 32.7717 17.3333C31.1134 17.3333 29.7632 18.6808 29.7632 20.3418V36.3853C29.7632 38.0518 31.1134 39.3965 32.7717 39.3965Z" fill="#D9001A"/>
<path d="M32.7717 48.5429C34.4327 48.5429 35.7802 47.1981 35.7802 45.5344V45.0339C35.7802 43.3729 34.4299 42.0254 32.7717 42.0254C31.1134 42.0254 29.7632 43.3701 29.7632 45.0339V45.5344C29.7632 47.1981 31.1134 48.5429 32.7717 48.5429Z" fill="#D9001A"/>
</svg>
