<svg width="84" height="100" viewBox="0 0 84 100" fill="none" xmlns="http://www.w3.org/2000/svg">
<g clip-path="url(#clip0_72_39336)">
<path d="M71.1108 56.2182H62.9993V29.3709C62.9993 17.6527 53.4744 8.12 41.7658 8.12C30.0573 8.12 20.5324 17.6527 20.5324 29.3709V56.2182H12.4209V29.3709C12.4191 13.1764 25.5828 0 41.764 0C57.9452 0 71.1108 13.1764 71.1108 29.3709V56.2182Z" fill="#3B2A7F"/>
<path d="M80.3829 43.4783H3.1465C1.40874 43.4783 0 44.8882 0 46.6274V96.851C0 98.5902 1.40874 100 3.1465 100H80.3829C82.1207 100 83.5294 98.5902 83.5294 96.851V46.6274C83.5294 44.8882 82.1207 43.4783 80.3829 43.4783Z" fill="#08031F"/>
<rect x="11.1763" y="52.353" width="15.8824" height="8.23529" fill="#4F34B8"/>
<rect x="34.1177" y="52.353" width="15.8824" height="8.23529" fill="#4F34B8"/>
<rect x="57.0586" y="52.353" width="15.8824" height="8.23529" fill="#4F34B8"/>
<rect x="11.1763" y="67.647" width="15.8824" height="8.23529" fill="#4F34B8"/>
<rect x="34.1177" y="67.647" width="15.8824" height="8.23529" fill="#4F34B8"/>
<rect x="57.0586" y="67.647" width="15.8824" height="8.23529" fill="#4F34B8"/>
<rect x="11.1763" y="82.9412" width="15.8824" height="8.23529" fill="#4F34B8"/>
<rect x="34.1177" y="82.9412" width="15.8824" height="8.23529" fill="#4F34B8"/>
<rect x="57.0586" y="82.9412" width="15.8824" height="8.23529" fill="#4F34B8"/>
</g>
<defs>
<clipPath id="clip0_72_39336">
<rect width="83.5294" height="100" fill="white"/>
</clipPath>
</defs>
</svg>
