<svg width="17" height="17" viewBox="0 0 17 17" fill="none" xmlns="http://www.w3.org/2000/svg">
	<g clip-path="url(#clip0_72_39255)">
		<path
			d="M8.534 3.85938C7.174 3.85938 6.052 4.96437 6.052 6.34137C6.052 6.69837 6.341 6.97037 6.681 6.97037C7.021 6.97037 7.31 6.68137 7.31 6.34137C7.31 5.67837 7.854 5.13437 8.517 5.13437C9.214 5.13437 9.724 5.62737 9.724 6.29037C9.724 6.29037 9.724 6.30737 9.724 6.34137C9.724 6.71537 9.622 7.59937 8.415 7.78637C8.109 7.83737 7.871 8.09237 7.871 8.41537V10.1324C7.871 10.4894 8.16 10.7614 8.5 10.7614C8.84 10.7614 9.129 10.4724 9.129 10.1324V8.92537C10.727 8.43237 10.982 7.05537 10.982 6.29037C11.016 4.93037 9.894 3.85938 8.534 3.85938Z"
			fill="#4820E3"
		/>
		<path
			d="M8.53402 11.5264C8.07502 11.5264 7.71802 11.9004 7.71802 12.3424C7.71802 12.7844 8.09202 13.1584 8.53402 13.1584C8.97602 13.1584 9.35002 12.7844 9.35002 12.3424C9.35002 11.9004 8.97602 11.5264 8.53402 11.5264Z"
			fill="#4820E3"
		/>
		<path
			d="M8.53404 0.135742C3.96104 0.135742 0.238037 3.85874 0.238037 8.43174C0.238037 13.0047 3.96104 16.7277 8.53404 16.7277C13.107 16.7277 16.83 13.0047 16.83 8.43174C16.83 3.85874 13.107 0.135742 8.53404 0.135742ZM8.53404 15.4697C4.65804 15.4697 1.49604 12.3077 1.49604 8.43174C1.49604 4.55574 4.65804 1.39374 8.53404 1.39374C12.41 1.39374 15.572 4.55574 15.572 8.43174C15.555 12.3077 12.41 15.4697 8.53404 15.4697Z"
			fill="#4820E3"
		/>
	</g>
	<defs>
		<clipPath id="clip0_72_39255">
			<rect width="17" height="17" fill="white" />
		</clipPath>
	</defs>
</svg>
