<svg width="48" height="48" viewBox="0 0 48 48" fill="none" xmlns="http://www.w3.org/2000/svg">
<circle cx="24" cy="24" r="24" fill="#E1F6F7"/>
<path d="M10.1659 32.6657C10.3728 32.1728 10.8575 31.8828 11.3914 31.8568C11.9411 31.8147 12.4909 31.7026 13.0269 31.5623C14.0851 31.2679 15.0747 30.7631 15.9405 30.0759C16.1879 29.8796 16.4353 29.6693 16.6689 29.4449C17.1637 28.9401 17.5898 28.3652 17.9334 27.7482C18.2357 27.2013 18.4556 26.6124 18.6205 26.0094C18.6425 25.9423 18.5755 25.8692 18.5049 25.8692H18.112C17.576 25.8692 17.0263 25.8692 16.4903 25.8692C16.0367 25.8692 15.5969 25.8131 15.1571 25.7149C15.122 25.703 15.0868 25.691 15.0517 25.6878C15.0397 25.6867 15.0244 25.6825 15.0144 25.6759C14.9885 25.6588 14.9867 25.6262 14.9992 25.5978C15.1145 25.3345 15.2183 25.0822 15.3221 24.8175L16.1604 22.8403C16.1653 22.8229 16.1706 22.806 16.1763 22.7894C16.2288 22.6375 16.3433 22.4898 16.504 22.4898C17.1775 22.4757 17.8371 22.4898 18.5106 22.4898C18.6015 22.4898 18.6719 22.4038 18.6583 22.3139C18.6524 22.2747 18.6457 22.2362 18.6343 22.1953C18.3869 21.2417 17.9608 20.3583 17.3699 19.5871C17.0812 19.2085 16.7651 18.8579 16.4216 18.5214C15.9955 18.1147 15.5282 17.7642 15.006 17.4697C14.47 17.1612 13.9065 16.9088 13.3292 16.7125C12.8482 16.5582 12.3534 16.446 11.8449 16.3759C11.4464 16.3339 11.0615 16.3198 10.663 16.2918C10.6072 16.2918 10.5515 16.2871 10.4958 16.2804C10.4148 16.2707 10.3172 16.2571 10.2919 16.1796C10.1545 15.8571 10.017 15.5486 9.87959 15.2261C9.71467 14.8475 9.56349 14.4689 9.39857 14.1043C9.30868 13.8801 9.21154 13.6633 9.11242 13.4378C9.05198 13.3003 9.12689 13.1418 9.27109 13.0998C9.28276 13.0964 9.29465 13.0938 9.30669 13.0922C9.90566 13.01 10.518 12.9828 11.1303 13.0105C12.1061 13.0386 13.0819 13.1928 14.0439 13.4452C14.6486 13.6135 15.2533 13.8238 15.8306 14.0762C16.6415 14.4268 17.4111 14.8615 18.1258 15.3803C18.4419 15.6187 18.758 15.8711 19.0603 16.1235C19.1978 16.2357 19.3352 16.3619 19.4726 16.4881C20.1598 17.1612 20.7645 17.9324 21.2731 18.7598C21.7816 19.5871 22.1526 20.4845 22.4 21.424C22.4825 21.7325 22.5375 22.0551 22.6062 22.3636C22.6199 22.4056 22.6612 22.4477 22.7161 22.4477C23.4112 22.4477 24.1142 22.4477 24.819 22.4477C25.2224 22.4477 25.5706 22.1713 25.6435 21.7746C25.8084 21.1155 26.0283 20.4845 26.3032 19.8816C26.5231 19.3768 26.798 18.886 27.1141 18.4372C27.4027 18.0306 27.7051 17.6239 28.0349 17.2453C28.2823 16.9509 28.5434 16.6704 28.8183 16.418C29.3955 15.8851 30.014 15.4084 30.6874 14.9877C31.3746 14.553 32.0893 14.2024 32.8452 13.922C33.3674 13.7397 33.8897 13.5714 34.412 13.4312C34.8105 13.333 35.1953 13.2629 35.6076 13.2068C35.9375 13.1507 36.2811 13.1227 36.6247 13.0947C36.8446 13.0806 37.0507 13.0666 37.2706 13.0666C37.6005 13.0666 37.9166 13.0526 38.2327 13.0666C38.5465 13.0805 38.8602 13.1497 39.174 13.2056C39.1787 13.2064 39.1808 13.2061 39.1853 13.2074C39.2163 13.2166 39.2142 13.2683 39.2017 13.2981L38.9886 13.8098C38.7412 14.3987 38.4938 14.9877 38.2327 15.5907C38.1365 15.801 38.0403 16.0113 37.9578 16.2357C37.9028 16.3759 37.7654 16.3198 37.6692 16.3479C37.5152 16.3741 37.3569 16.3482 37.2008 16.3544C36.4157 16.3857 35.643 16.5097 34.893 16.7265C34.3707 16.8807 33.8622 17.0771 33.3812 17.3154C32.7902 17.6099 32.2405 17.9745 31.7319 18.4092C31.5258 18.5915 31.2922 18.7738 31.0997 18.9841C30.605 19.4889 30.1789 20.0639 29.8353 20.6949C29.5605 21.2137 29.3406 21.7606 29.1756 22.3355C29.1537 22.4026 29.2207 22.4757 29.2912 22.4757H29.2993C30.014 22.4757 30.7424 22.4617 31.4571 22.4757C31.8788 22.4757 32.3006 22.5444 32.709 22.6819C32.7172 22.6846 32.725 22.6901 32.7323 22.6947C32.7513 22.7066 32.7569 22.7275 32.7481 22.7481L32.3642 23.6396C32.0893 24.2987 31.8007 24.9577 31.5258 25.6308C31.4433 25.8271 31.3884 25.8692 31.1685 25.8692H29.7158C29.4376 25.8692 29.2267 26.1376 29.3131 26.402C29.5055 26.991 29.7804 27.5519 30.1239 28.0707C30.3301 28.3792 30.55 28.6597 30.7836 28.9401C30.9211 29.1084 31.0723 29.2767 31.2234 29.4169C31.7319 29.9217 32.3092 30.3564 32.9276 30.707C33.4499 31.0155 34.0134 31.2679 34.5906 31.4642C35.1404 31.6605 35.7176 31.7867 36.3086 31.8428C36.6659 31.8708 37.037 31.8989 37.3943 31.9269C37.5017 31.9379 37.6091 31.9403 37.7165 31.9475C37.7762 31.9515 37.8491 31.9574 37.8753 32.0111C38.109 32.572 38.3426 33.1329 38.59 33.6938C38.7103 33.9743 38.8306 34.2549 38.9543 34.5423C39.0715 34.8148 38.9134 35.1446 38.6175 35.1661C38.1502 35.1942 37.6692 35.2222 37.2019 35.2222C36.7759 35.2222 36.3498 35.1802 35.9375 35.1241C35.374 35.0399 34.7968 34.9418 34.2333 34.8156C33.5598 34.6473 32.9002 34.4229 32.2542 34.1425C31.4846 33.8059 30.7699 33.3993 30.0827 32.9085C29.7254 32.6421 29.3818 32.3616 29.0382 32.0812C28.8183 31.8989 28.5984 31.6885 28.406 31.4782C27.9662 31.0155 27.5539 30.5247 27.1966 29.9918C26.853 29.487 26.5506 28.9541 26.2895 28.3932C25.9886 27.7527 25.7749 27.074 25.6247 26.3813C25.6095 26.3112 25.5874 26.2414 25.5714 26.1715C25.5531 26.0914 25.5675 25.9988 25.5171 25.934C25.4857 25.8937 25.4306 25.8832 25.3549 25.8832C24.4753 25.8832 23.6095 25.8832 22.7299 25.8832C22.6423 25.8832 22.5675 25.9459 22.5506 26.0318C22.4121 26.7376 22.2016 27.4304 21.919 28.0988C21.6716 28.7017 21.3693 29.2767 20.9982 29.8095C20.7096 30.2162 20.4072 30.6228 20.0774 31.0014C19.8437 31.2959 19.5826 31.5623 19.3077 31.8147C18.8817 32.1934 18.4281 32.5439 17.9746 32.8945C17.4248 33.2871 16.8476 33.6377 16.2429 33.9181C15.5145 34.2687 14.7586 34.5491 13.9889 34.7455C13.5491 34.8576 13.1093 34.9418 12.6695 35.0119C12.2435 35.082 11.8174 35.1241 11.3914 35.1661C11.144 35.1802 10.8966 35.1802 10.663 35.1661C10.3056 35.1661 9.94831 35.1521 9.60472 35.1381C9.48103 35.1241 9.35733 35.11 9.23364 35.082C9.16492 35.068 9.13744 35.0399 9.17867 34.9558C9.45354 34.3108 9.74216 33.6657 10.017 33.0207C10.0676 32.9004 10.1168 32.7827 10.1659 32.6657Z" fill="#00838D"/>
</svg>
