<svg width="20" height="20" viewBox="0 0 20 20" fill="none" xmlns="http://www.w3.org/2000/svg">
	<circle cx="10" cy="10" r="10" fill="#4820E3" />
	<path
		d="M4.2358 13.6105C4.32202 13.4052 4.52394 13.2843 4.74641 13.2735C4.97547 13.256 5.20453 13.2092 5.42787 13.1508C5.86881 13.0281 6.28112 12.8178 6.64189 12.5315C6.74496 12.4497 6.84804 12.362 6.94539 12.2686C7.15155 12.0582 7.32907 11.8187 7.47223 11.5616C7.59821 11.3337 7.68984 11.0883 7.75856 10.8371C7.76769 10.8091 7.7398 10.7787 7.71039 10.7787H7.54668C7.32334 10.7787 7.09428 10.7787 6.87095 10.7787C6.68197 10.7787 6.49872 10.7553 6.31548 10.7144C6.30082 10.7094 6.28617 10.7044 6.27152 10.7031C6.26655 10.7026 6.26018 10.7009 6.25601 10.6981C6.24523 10.691 6.24446 10.6774 6.24965 10.6656C6.29771 10.5559 6.34095 10.4508 6.38419 10.3405L6.73351 9.51664C6.73554 9.50939 6.73775 9.50234 6.74013 9.49543C6.762 9.43215 6.80972 9.37057 6.87667 9.37057C7.15727 9.36473 7.43215 9.37057 7.71274 9.37057C7.75063 9.37057 7.77994 9.33474 7.7743 9.29728C7.77185 9.28098 7.76906 9.26493 7.76428 9.24787C7.66121 8.85057 7.48368 8.48247 7.23744 8.16112C7.11719 8.00337 6.98548 7.8573 6.84231 7.71708C6.66479 7.54764 6.47009 7.40157 6.25248 7.27887C6.02915 7.15033 5.79436 7.04516 5.55385 6.96337C5.35342 6.8991 5.14727 6.85235 4.93539 6.82314C4.76932 6.80561 4.60898 6.79977 4.44291 6.78808C4.41968 6.78808 4.39646 6.78612 4.37323 6.78334C4.33951 6.77929 4.29884 6.77363 4.28829 6.74134C4.23103 6.60696 4.17376 6.47842 4.1165 6.34404C4.04778 6.18628 3.98479 6.02853 3.91607 5.87662C3.87862 5.78321 3.83814 5.69289 3.79684 5.59893C3.77166 5.54164 3.80287 5.47559 3.86296 5.45807C3.86782 5.45665 3.87277 5.45559 3.87779 5.4549C4.12736 5.42066 4.38248 5.40932 4.63761 5.42089C5.04419 5.43257 5.45077 5.49684 5.85163 5.60201C6.1036 5.67212 6.35556 5.75976 6.59607 5.86493C6.93394 6.011 7.25462 6.19213 7.5524 6.40831C7.68411 6.50763 7.81582 6.6128 7.9418 6.71797C7.99907 6.76471 8.05633 6.8173 8.1136 6.86988C8.39993 7.15033 8.65189 7.47168 8.86377 7.8164C9.07565 8.16112 9.23027 8.53506 9.33335 8.92652C9.36771 9.05506 9.39061 9.18944 9.41924 9.31798C9.42497 9.33551 9.44215 9.35304 9.46506 9.35304C9.75468 9.35304 10.0476 9.35304 10.3413 9.35304C10.5093 9.35304 10.6544 9.2379 10.6848 9.07259C10.7535 8.79798 10.8451 8.53506 10.9597 8.28382C11.0513 8.07348 11.1658 7.86899 11.2975 7.68202C11.4178 7.51258 11.5438 7.34314 11.6812 7.18539C11.7843 7.06269 11.8931 6.94584 12.0076 6.84067C12.2481 6.61864 12.5058 6.41999 12.7864 6.24471C13.0728 6.06359 13.3705 5.91752 13.6855 5.80066C13.9031 5.72471 14.1207 5.65459 14.3383 5.59617C14.5044 5.55527 14.6647 5.52605 14.8365 5.50268C14.974 5.47931 15.1171 5.46763 15.2603 5.45594C15.3519 5.4501 15.4378 5.44426 15.5294 5.44426C15.6669 5.44426 15.7986 5.43841 15.9303 5.44426C16.061 5.45006 16.1918 5.47888 16.3225 5.50217C16.3244 5.50251 16.3253 5.50237 16.3272 5.50293C16.3401 5.50675 16.3392 5.52828 16.3341 5.54071L16.2452 5.75392C16.1422 5.99932 16.0391 6.24471 15.9303 6.49595C15.8902 6.58359 15.8501 6.67123 15.8158 6.76471C15.7928 6.82314 15.7356 6.79977 15.6955 6.81145C15.6313 6.82237 15.5654 6.8116 15.5003 6.81419C15.1732 6.8272 14.8512 6.87887 14.5387 6.96921C14.3211 7.03348 14.1093 7.11528 13.9088 7.2146C13.6626 7.3373 13.4335 7.48921 13.2216 7.67034C13.1357 7.74629 13.0384 7.82225 12.9582 7.90989C12.7521 8.12023 12.5745 8.35978 12.4314 8.6227C12.3169 8.83888 12.2252 9.06675 12.1565 9.3063C12.1474 9.33425 12.1753 9.36473 12.2047 9.36473H12.2081C12.5058 9.36473 12.8093 9.35888 13.1071 9.36473C13.2829 9.36473 13.4586 9.39335 13.6288 9.45061C13.6322 9.45176 13.6354 9.45406 13.6385 9.45597C13.6464 9.46091 13.6487 9.46965 13.645 9.47821L13.4851 9.84967C13.3705 10.1243 13.2503 10.3989 13.1357 10.6793C13.1014 10.7611 13.0785 10.7787 12.9869 10.7787H12.3816C12.2657 10.7787 12.1778 10.8905 12.2138 11.0007C12.294 11.2461 12.4085 11.4798 12.5516 11.696C12.6375 11.8245 12.7292 11.9414 12.8265 12.0582C12.8838 12.1283 12.9468 12.1984 13.0098 12.2569C13.2216 12.4672 13.4622 12.6483 13.7199 12.7944C13.9375 12.9229 14.1722 13.0281 14.4128 13.1099C14.6418 13.1917 14.8823 13.2443 15.1286 13.2677C15.2775 13.2794 15.4321 13.291 15.581 13.3027C15.6257 13.3073 15.6705 13.3083 15.7152 13.3113C15.7401 13.313 15.7704 13.3154 15.7814 13.3378C15.8787 13.5715 15.9761 13.8052 16.0792 14.0389C16.1293 14.1558 16.1794 14.2727 16.2309 14.3924C16.2798 14.506 16.2139 14.6434 16.0906 14.6524C15.8959 14.6641 15.6955 14.6758 15.5008 14.6758C15.3233 14.6758 15.1458 14.6582 14.974 14.6349C14.7392 14.5998 14.4987 14.5589 14.2639 14.5063C13.9833 14.4362 13.7084 14.3427 13.4393 14.2259C13.1186 14.0856 12.8208 13.9162 12.5345 13.7117C12.3856 13.6007 12.2424 13.4838 12.0992 13.367C12.0076 13.291 11.916 13.2034 11.8358 13.1158C11.6526 12.9229 11.4808 12.7185 11.3319 12.4964C11.1887 12.2861 11.0628 12.0641 10.9539 11.8304C10.8286 11.5634 10.7396 11.2807 10.6769 10.9921C10.6706 10.9628 10.6614 10.9338 10.6548 10.9046C10.6471 10.8713 10.6531 10.8327 10.6321 10.8057C10.619 10.7889 10.5961 10.7845 10.5645 10.7845C10.198 10.7845 9.83728 10.7845 9.47078 10.7845C9.43431 10.7845 9.40313 10.8106 9.3961 10.8464C9.33838 11.1405 9.25065 11.4292 9.13292 11.7077C9.02984 11.9589 8.90386 12.1984 8.74924 12.4205C8.62899 12.5899 8.503 12.7593 8.36557 12.9171C8.26822 13.0398 8.15941 13.1508 8.04488 13.256C7.86736 13.4137 7.67839 13.5598 7.48941 13.7059C7.26035 13.8695 7.01984 14.0155 6.76787 14.1324C6.46437 14.2785 6.14941 14.3953 5.82872 14.4771C5.64547 14.5239 5.46223 14.5589 5.27898 14.5881C5.10146 14.6173 4.92393 14.6349 4.74641 14.6524C4.64334 14.6582 4.54026 14.6582 4.44291 14.6524C4.29402 14.6524 4.14513 14.6466 4.00197 14.6407C3.95043 14.6349 3.89889 14.629 3.84735 14.6173C3.81872 14.6115 3.80727 14.5998 3.82444 14.5648C3.93897 14.296 4.05923 14.0272 4.17376 13.7585C4.19482 13.7083 4.21533 13.6593 4.2358 13.6105Z"
		fill="white"
	/>
</svg>
